<svg xmlns="http://www.w3.org/2000/svg" width="600" height="750" viewBox="0 0 600 750">
  <defs><pattern id="pat" width="100" height="100" patternUnits="userSpaceOnUse"><g transform="translate(-100 -100)"><line x1="16" y1="34" x2="52" y2="34" stroke="#16233c" stroke-width="2.88" stroke-linecap="round"/><line x1="24.1" y1="34" x2="28.51" y2="30.29" stroke="#16233c" stroke-width="2.34" stroke-linecap="round"/><line x1="43.9" y1="34" x2="48.31" y2="37.71" stroke="#16233c" stroke-width="2.34" stroke-linecap="round"/><line x1="25" y1="18.41" x2="43" y2="49.59" stroke="#16233c" stroke-width="2.88" stroke-linecap="round"/><line x1="29.05" y1="25.43" x2="34.47" y2="27.39" stroke="#16233c" stroke-width="2.34" stroke-linecap="round"/><line x1="38.95" y1="42.57" x2="37.94" y2="48.24" stroke="#16233c" stroke-width="2.34" stroke-linecap="round"/><line x1="43" y1="18.41" x2="25" y2="49.59" stroke="#16233c" stroke-width="2.88" stroke-linecap="round"/><line x1="38.95" y1="25.43" x2="39.96" y2="31.1" stroke="#16233c" stroke-width="2.34" stroke-linecap="round"/><line x1="29.05" y1="42.57" x2="23.63" y2="44.53" stroke="#16233c" stroke-width="2.34" stroke-linecap="round"/><circle cx="34" cy="34" r="3.6" fill="#e47e56"/><line x1="67" y1="76" x2="89" y2="76" stroke="#16233c" stroke-width="1.76" stroke-linecap="round"/><line x1="71.95" y1="76" x2="74.64" y2="73.73" stroke="#16233c" stroke-width="1.43" stroke-linecap="round"/><line x1="84.05" y1="76" x2="86.74" y2="78.27" stroke="#16233c" stroke-width="1.43" stroke-linecap="round"/><line x1="72.5" y1="66.47" x2="83.5" y2="85.53" stroke="#16233c" stroke-width="1.76" stroke-linecap="round"/><line x1="74.97" y1="70.76" x2="78.28" y2="71.96" stroke="#16233c" stroke-width="1.43" stroke-linecap="round"/><line x1="81.03" y1="81.24" x2="80.41" y2="84.7" stroke="#16233c" stroke-width="1.43" stroke-linecap="round"/><line x1="83.5" y1="66.47" x2="72.5" y2="85.53" stroke="#16233c" stroke-width="1.76" stroke-linecap="round"/><line x1="81.03" y1="70.76" x2="81.64" y2="74.23" stroke="#16233c" stroke-width="1.43" stroke-linecap="round"/><line x1="74.97" y1="81.24" x2="71.67" y2="82.44" stroke="#16233c" stroke-width="1.43" stroke-linecap="round"/><circle cx="78" cy="76" r="2.2" fill="#e47e56"/><line x1="12.5" y1="82" x2="27.5" y2="82" stroke="#16233c" stroke-width="1.2" stroke-linecap="round"/><line x1="15.88" y1="82" x2="17.71" y2="80.45" stroke="#16233c" stroke-width="0.98" stroke-linecap="round"/><line x1="24.13" y1="82" x2="25.96" y2="83.55" stroke="#16233c" stroke-width="0.98" stroke-linecap="round"/><line x1="16.25" y1="75.5" x2="23.75" y2="88.5" stroke="#16233c" stroke-width="1.2" stroke-linecap="round"/><line x1="17.94" y1="78.43" x2="20.19" y2="79.24" stroke="#16233c" stroke-width="0.98" stroke-linecap="round"/><line x1="22.06" y1="85.57" x2="21.64" y2="87.94" stroke="#16233c" stroke-width="0.98" stroke-linecap="round"/><line x1="23.75" y1="75.5" x2="16.25" y2="88.5" stroke="#16233c" stroke-width="1.2" stroke-linecap="round"/><line x1="22.06" y1="78.43" x2="22.48" y2="80.79" stroke="#16233c" stroke-width="0.98" stroke-linecap="round"/><line x1="17.94" y1="85.57" x2="15.68" y2="86.39" stroke="#16233c" stroke-width="0.98" stroke-linecap="round"/><circle cx="20" cy="82" r="1.5" fill="#e47e56"/><circle cx="74" cy="24" r="4" fill="#e47e56"/><circle cx="54" cy="60" r="2.5" fill="#16233c"/><circle cx="92" cy="52" r="3" fill="#e47e56"/></g><g transform="translate(-100 0)"><line x1="16" y1="34" x2="52" y2="34" stroke="#16233c" stroke-width="2.88" stroke-linecap="round"/><line x1="24.1" y1="34" x2="28.51" y2="30.29" stroke="#16233c" stroke-width="2.34" stroke-linecap="round"/><line x1="43.9" y1="34" x2="48.31" y2="37.71" stroke="#16233c" stroke-width="2.34" stroke-linecap="round"/><line x1="25" y1="18.41" x2="43" y2="49.59" stroke="#16233c" stroke-width="2.88" stroke-linecap="round"/><line x1="29.05" y1="25.43" x2="34.47" y2="27.39" stroke="#16233c" stroke-width="2.34" stroke-linecap="round"/><line x1="38.95" y1="42.57" x2="37.94" y2="48.24" stroke="#16233c" stroke-width="2.34" stroke-linecap="round"/><line x1="43" y1="18.41" x2="25" y2="49.59" stroke="#16233c" stroke-width="2.88" stroke-linecap="round"/><line x1="38.95" y1="25.43" x2="39.96" y2="31.1" stroke="#16233c" stroke-width="2.34" stroke-linecap="round"/><line x1="29.05" y1="42.57" x2="23.63" y2="44.53" stroke="#16233c" stroke-width="2.34" stroke-linecap="round"/><circle cx="34" cy="34" r="3.6" fill="#e47e56"/><line x1="67" y1="76" x2="89" y2="76" stroke="#16233c" stroke-width="1.76" stroke-linecap="round"/><line x1="71.95" y1="76" x2="74.64" y2="73.73" stroke="#16233c" stroke-width="1.43" stroke-linecap="round"/><line x1="84.05" y1="76" x2="86.74" y2="78.27" stroke="#16233c" stroke-width="1.43" stroke-linecap="round"/><line x1="72.5" y1="66.47" x2="83.5" y2="85.53" stroke="#16233c" stroke-width="1.76" stroke-linecap="round"/><line x1="74.97" y1="70.76" x2="78.28" y2="71.96" stroke="#16233c" stroke-width="1.43" stroke-linecap="round"/><line x1="81.03" y1="81.24" x2="80.41" y2="84.7" stroke="#16233c" stroke-width="1.43" stroke-linecap="round"/><line x1="83.5" y1="66.47" x2="72.5" y2="85.53" stroke="#16233c" stroke-width="1.76" stroke-linecap="round"/><line x1="81.03" y1="70.76" x2="81.64" y2="74.23" stroke="#16233c" stroke-width="1.43" stroke-linecap="round"/><line x1="74.97" y1="81.24" x2="71.67" y2="82.44" stroke="#16233c" stroke-width="1.43" stroke-linecap="round"/><circle cx="78" cy="76" r="2.2" fill="#e47e56"/><line x1="12.5" y1="82" x2="27.5" y2="82" stroke="#16233c" stroke-width="1.2" stroke-linecap="round"/><line x1="15.88" y1="82" x2="17.71" y2="80.45" stroke="#16233c" stroke-width="0.98" stroke-linecap="round"/><line x1="24.13" y1="82" x2="25.96" y2="83.55" stroke="#16233c" stroke-width="0.98" stroke-linecap="round"/><line x1="16.25" y1="75.5" x2="23.75" y2="88.5" stroke="#16233c" stroke-width="1.2" stroke-linecap="round"/><line x1="17.94" y1="78.43" x2="20.19" y2="79.24" stroke="#16233c" stroke-width="0.98" stroke-linecap="round"/><line x1="22.06" y1="85.57" x2="21.64" y2="87.94" stroke="#16233c" stroke-width="0.98" stroke-linecap="round"/><line x1="23.75" y1="75.5" x2="16.25" y2="88.5" stroke="#16233c" stroke-width="1.2" stroke-linecap="round"/><line x1="22.06" y1="78.43" x2="22.48" y2="80.79" stroke="#16233c" stroke-width="0.98" stroke-linecap="round"/><line x1="17.94" y1="85.57" x2="15.68" y2="86.39" stroke="#16233c" stroke-width="0.98" stroke-linecap="round"/><circle cx="20" cy="82" r="1.5" fill="#e47e56"/><circle cx="74" cy="24" r="4" fill="#e47e56"/><circle cx="54" cy="60" r="2.5" fill="#16233c"/><circle cx="92" cy="52" r="3" fill="#e47e56"/></g><g transform="translate(-100 100)"><line x1="16" y1="34" x2="52" y2="34" stroke="#16233c" stroke-width="2.88" stroke-linecap="round"/><line x1="24.1" y1="34" x2="28.51" y2="30.29" stroke="#16233c" stroke-width="2.34" stroke-linecap="round"/><line x1="43.9" y1="34" x2="48.31" y2="37.71" stroke="#16233c" stroke-width="2.34" stroke-linecap="round"/><line x1="25" y1="18.41" x2="43" y2="49.59" stroke="#16233c" stroke-width="2.88" stroke-linecap="round"/><line x1="29.05" y1="25.43" x2="34.47" y2="27.39" stroke="#16233c" stroke-width="2.34" stroke-linecap="round"/><line x1="38.95" y1="42.57" x2="37.94" y2="48.24" stroke="#16233c" stroke-width="2.34" stroke-linecap="round"/><line x1="43" y1="18.41" x2="25" y2="49.59" stroke="#16233c" stroke-width="2.88" stroke-linecap="round"/><line x1="38.95" y1="25.43" x2="39.96" y2="31.1" stroke="#16233c" stroke-width="2.34" stroke-linecap="round"/><line x1="29.05" y1="42.57" x2="23.63" y2="44.53" stroke="#16233c" stroke-width="2.34" stroke-linecap="round"/><circle cx="34" cy="34" r="3.6" fill="#e47e56"/><line x1="67" y1="76" x2="89" y2="76" stroke="#16233c" stroke-width="1.76" stroke-linecap="round"/><line x1="71.95" y1="76" x2="74.64" y2="73.73" stroke="#16233c" stroke-width="1.43" stroke-linecap="round"/><line x1="84.05" y1="76" x2="86.74" y2="78.27" stroke="#16233c" stroke-width="1.43" stroke-linecap="round"/><line x1="72.5" y1="66.47" x2="83.5" y2="85.53" stroke="#16233c" stroke-width="1.76" stroke-linecap="round"/><line x1="74.97" y1="70.76" x2="78.28" y2="71.96" stroke="#16233c" stroke-width="1.43" stroke-linecap="round"/><line x1="81.03" y1="81.24" x2="80.41" y2="84.7" stroke="#16233c" stroke-width="1.43" stroke-linecap="round"/><line x1="83.5" y1="66.47" x2="72.5" y2="85.53" stroke="#16233c" stroke-width="1.76" stroke-linecap="round"/><line x1="81.03" y1="70.76" x2="81.64" y2="74.23" stroke="#16233c" stroke-width="1.43" stroke-linecap="round"/><line x1="74.97" y1="81.24" x2="71.67" y2="82.44" stroke="#16233c" stroke-width="1.43" stroke-linecap="round"/><circle cx="78" cy="76" r="2.2" fill="#e47e56"/><line x1="12.5" y1="82" x2="27.5" y2="82" stroke="#16233c" stroke-width="1.2" stroke-linecap="round"/><line x1="15.88" y1="82" x2="17.71" y2="80.45" stroke="#16233c" stroke-width="0.98" stroke-linecap="round"/><line x1="24.13" y1="82" x2="25.96" y2="83.55" stroke="#16233c" stroke-width="0.98" stroke-linecap="round"/><line x1="16.25" y1="75.5" x2="23.75" y2="88.5" stroke="#16233c" stroke-width="1.2" stroke-linecap="round"/><line x1="17.94" y1="78.43" x2="20.19" y2="79.24" stroke="#16233c" stroke-width="0.98" stroke-linecap="round"/><line x1="22.06" y1="85.57" x2="21.64" y2="87.94" stroke="#16233c" stroke-width="0.98" stroke-linecap="round"/><line x1="23.75" y1="75.5" x2="16.25" y2="88.5" stroke="#16233c" stroke-width="1.2" stroke-linecap="round"/><line x1="22.06" y1="78.43" x2="22.48" y2="80.79" stroke="#16233c" stroke-width="0.98" stroke-linecap="round"/><line x1="17.94" y1="85.57" x2="15.68" y2="86.39" stroke="#16233c" stroke-width="0.98" stroke-linecap="round"/><circle cx="20" cy="82" r="1.5" fill="#e47e56"/><circle cx="74" cy="24" r="4" fill="#e47e56"/><circle cx="54" cy="60" r="2.5" fill="#16233c"/><circle cx="92" cy="52" r="3" fill="#e47e56"/></g><g transform="translate(0 -100)"><line x1="16" y1="34" x2="52" y2="34" stroke="#16233c" stroke-width="2.88" stroke-linecap="round"/><line x1="24.1" y1="34" x2="28.51" y2="30.29" stroke="#16233c" stroke-width="2.34" stroke-linecap="round"/><line x1="43.9" y1="34" x2="48.31" y2="37.71" stroke="#16233c" stroke-width="2.34" stroke-linecap="round"/><line x1="25" y1="18.41" x2="43" y2="49.59" stroke="#16233c" stroke-width="2.88" stroke-linecap="round"/><line x1="29.05" y1="25.43" x2="34.47" y2="27.39" stroke="#16233c" stroke-width="2.34" stroke-linecap="round"/><line x1="38.95" y1="42.57" x2="37.94" y2="48.24" stroke="#16233c" stroke-width="2.34" stroke-linecap="round"/><line x1="43" y1="18.41" x2="25" y2="49.59" stroke="#16233c" stroke-width="2.88" stroke-linecap="round"/><line x1="38.95" y1="25.43" x2="39.96" y2="31.1" stroke="#16233c" stroke-width="2.34" stroke-linecap="round"/><line x1="29.05" y1="42.57" x2="23.63" y2="44.53" stroke="#16233c" stroke-width="2.34" stroke-linecap="round"/><circle cx="34" cy="34" r="3.6" fill="#e47e56"/><line x1="67" y1="76" x2="89" y2="76" stroke="#16233c" stroke-width="1.76" stroke-linecap="round"/><line x1="71.95" y1="76" x2="74.64" y2="73.73" stroke="#16233c" stroke-width="1.43" stroke-linecap="round"/><line x1="84.05" y1="76" x2="86.74" y2="78.27" stroke="#16233c" stroke-width="1.43" stroke-linecap="round"/><line x1="72.5" y1="66.47" x2="83.5" y2="85.53" stroke="#16233c" stroke-width="1.76" stroke-linecap="round"/><line x1="74.97" y1="70.76" x2="78.28" y2="71.96" stroke="#16233c" stroke-width="1.43" stroke-linecap="round"/><line x1="81.03" y1="81.24" x2="80.41" y2="84.7" stroke="#16233c" stroke-width="1.43" stroke-linecap="round"/><line x1="83.5" y1="66.47" x2="72.5" y2="85.53" stroke="#16233c" stroke-width="1.76" stroke-linecap="round"/><line x1="81.03" y1="70.76" x2="81.64" y2="74.23" stroke="#16233c" stroke-width="1.43" stroke-linecap="round"/><line x1="74.97" y1="81.24" x2="71.67" y2="82.44" stroke="#16233c" stroke-width="1.43" stroke-linecap="round"/><circle cx="78" cy="76" r="2.2" fill="#e47e56"/><line x1="12.5" y1="82" x2="27.5" y2="82" stroke="#16233c" stroke-width="1.2" stroke-linecap="round"/><line x1="15.88" y1="82" x2="17.71" y2="80.45" stroke="#16233c" stroke-width="0.98" stroke-linecap="round"/><line x1="24.13" y1="82" x2="25.96" y2="83.55" stroke="#16233c" stroke-width="0.98" stroke-linecap="round"/><line x1="16.25" y1="75.5" x2="23.75" y2="88.5" stroke="#16233c" stroke-width="1.2" stroke-linecap="round"/><line x1="17.94" y1="78.43" x2="20.19" y2="79.24" stroke="#16233c" stroke-width="0.98" stroke-linecap="round"/><line x1="22.06" y1="85.57" x2="21.64" y2="87.94" stroke="#16233c" stroke-width="0.98" stroke-linecap="round"/><line x1="23.75" y1="75.5" x2="16.25" y2="88.5" stroke="#16233c" stroke-width="1.2" stroke-linecap="round"/><line x1="22.06" y1="78.43" x2="22.48" y2="80.79" stroke="#16233c" stroke-width="0.98" stroke-linecap="round"/><line x1="17.94" y1="85.57" x2="15.68" y2="86.39" stroke="#16233c" stroke-width="0.98" stroke-linecap="round"/><circle cx="20" cy="82" r="1.5" fill="#e47e56"/><circle cx="74" cy="24" r="4" fill="#e47e56"/><circle cx="54" cy="60" r="2.5" fill="#16233c"/><circle cx="92" cy="52" r="3" fill="#e47e56"/></g><g transform="translate(0 0)"><line x1="16" y1="34" x2="52" y2="34" stroke="#16233c" stroke-width="2.88" stroke-linecap="round"/><line x1="24.1" y1="34" x2="28.51" y2="30.29" stroke="#16233c" stroke-width="2.34" stroke-linecap="round"/><line x1="43.9" y1="34" x2="48.31" y2="37.71" stroke="#16233c" stroke-width="2.34" stroke-linecap="round"/><line x1="25" y1="18.41" x2="43" y2="49.59" stroke="#16233c" stroke-width="2.88" stroke-linecap="round"/><line x1="29.05" y1="25.43" x2="34.47" y2="27.39" stroke="#16233c" stroke-width="2.34" stroke-linecap="round"/><line x1="38.95" y1="42.57" x2="37.94" y2="48.24" stroke="#16233c" stroke-width="2.34" stroke-linecap="round"/><line x1="43" y1="18.41" x2="25" y2="49.59" stroke="#16233c" stroke-width="2.88" stroke-linecap="round"/><line x1="38.95" y1="25.43" x2="39.96" y2="31.1" stroke="#16233c" stroke-width="2.34" stroke-linecap="round"/><line x1="29.05" y1="42.57" x2="23.63" y2="44.53" stroke="#16233c" stroke-width="2.34" stroke-linecap="round"/><circle cx="34" cy="34" r="3.6" fill="#e47e56"/><line x1="67" y1="76" x2="89" y2="76" stroke="#16233c" stroke-width="1.76" stroke-linecap="round"/><line x1="71.95" y1="76" x2="74.64" y2="73.73" stroke="#16233c" stroke-width="1.43" stroke-linecap="round"/><line x1="84.05" y1="76" x2="86.74" y2="78.27" stroke="#16233c" stroke-width="1.43" stroke-linecap="round"/><line x1="72.5" y1="66.47" x2="83.5" y2="85.53" stroke="#16233c" stroke-width="1.76" stroke-linecap="round"/><line x1="74.97" y1="70.76" x2="78.28" y2="71.96" stroke="#16233c" stroke-width="1.43" stroke-linecap="round"/><line x1="81.03" y1="81.24" x2="80.41" y2="84.7" stroke="#16233c" stroke-width="1.43" stroke-linecap="round"/><line x1="83.5" y1="66.47" x2="72.5" y2="85.53" stroke="#16233c" stroke-width="1.76" stroke-linecap="round"/><line x1="81.03" y1="70.76" x2="81.64" y2="74.23" stroke="#16233c" stroke-width="1.43" stroke-linecap="round"/><line x1="74.97" y1="81.24" x2="71.67" y2="82.44" stroke="#16233c" stroke-width="1.43" stroke-linecap="round"/><circle cx="78" cy="76" r="2.2" fill="#e47e56"/><line x1="12.5" y1="82" x2="27.5" y2="82" stroke="#16233c" stroke-width="1.2" stroke-linecap="round"/><line x1="15.88" y1="82" x2="17.71" y2="80.45" stroke="#16233c" stroke-width="0.98" stroke-linecap="round"/><line x1="24.13" y1="82" x2="25.96" y2="83.55" stroke="#16233c" stroke-width="0.98" stroke-linecap="round"/><line x1="16.25" y1="75.5" x2="23.75" y2="88.5" stroke="#16233c" stroke-width="1.2" stroke-linecap="round"/><line x1="17.94" y1="78.43" x2="20.19" y2="79.24" stroke="#16233c" stroke-width="0.98" stroke-linecap="round"/><line x1="22.06" y1="85.57" x2="21.64" y2="87.94" stroke="#16233c" stroke-width="0.98" stroke-linecap="round"/><line x1="23.75" y1="75.5" x2="16.25" y2="88.5" stroke="#16233c" stroke-width="1.2" stroke-linecap="round"/><line x1="22.06" y1="78.43" x2="22.48" y2="80.79" stroke="#16233c" stroke-width="0.98" stroke-linecap="round"/><line x1="17.94" y1="85.57" x2="15.68" y2="86.39" stroke="#16233c" stroke-width="0.98" stroke-linecap="round"/><circle cx="20" cy="82" r="1.5" fill="#e47e56"/><circle cx="74" cy="24" r="4" fill="#e47e56"/><circle cx="54" cy="60" r="2.5" fill="#16233c"/><circle cx="92" cy="52" r="3" fill="#e47e56"/></g><g transform="translate(0 100)"><line x1="16" y1="34" x2="52" y2="34" stroke="#16233c" stroke-width="2.88" stroke-linecap="round"/><line x1="24.1" y1="34" x2="28.51" y2="30.29" stroke="#16233c" stroke-width="2.34" stroke-linecap="round"/><line x1="43.9" y1="34" x2="48.31" y2="37.71" stroke="#16233c" stroke-width="2.34" stroke-linecap="round"/><line x1="25" y1="18.41" x2="43" y2="49.59" stroke="#16233c" stroke-width="2.88" stroke-linecap="round"/><line x1="29.05" y1="25.43" x2="34.47" y2="27.39" stroke="#16233c" stroke-width="2.34" stroke-linecap="round"/><line x1="38.95" y1="42.57" x2="37.94" y2="48.24" stroke="#16233c" stroke-width="2.34" stroke-linecap="round"/><line x1="43" y1="18.41" x2="25" y2="49.59" stroke="#16233c" stroke-width="2.88" stroke-linecap="round"/><line x1="38.95" y1="25.43" x2="39.96" y2="31.1" stroke="#16233c" stroke-width="2.34" stroke-linecap="round"/><line x1="29.05" y1="42.57" x2="23.63" y2="44.53" stroke="#16233c" stroke-width="2.34" stroke-linecap="round"/><circle cx="34" cy="34" r="3.6" fill="#e47e56"/><line x1="67" y1="76" x2="89" y2="76" stroke="#16233c" stroke-width="1.76" stroke-linecap="round"/><line x1="71.95" y1="76" x2="74.64" y2="73.73" stroke="#16233c" stroke-width="1.43" stroke-linecap="round"/><line x1="84.05" y1="76" x2="86.74" y2="78.27" stroke="#16233c" stroke-width="1.43" stroke-linecap="round"/><line x1="72.5" y1="66.47" x2="83.5" y2="85.53" stroke="#16233c" stroke-width="1.76" stroke-linecap="round"/><line x1="74.97" y1="70.76" x2="78.28" y2="71.96" stroke="#16233c" stroke-width="1.43" stroke-linecap="round"/><line x1="81.03" y1="81.24" x2="80.41" y2="84.7" stroke="#16233c" stroke-width="1.43" stroke-linecap="round"/><line x1="83.5" y1="66.47" x2="72.5" y2="85.53" stroke="#16233c" stroke-width="1.76" stroke-linecap="round"/><line x1="81.03" y1="70.76" x2="81.64" y2="74.23" stroke="#16233c" stroke-width="1.43" stroke-linecap="round"/><line x1="74.97" y1="81.24" x2="71.67" y2="82.44" stroke="#16233c" stroke-width="1.43" stroke-linecap="round"/><circle cx="78" cy="76" r="2.2" fill="#e47e56"/><line x1="12.5" y1="82" x2="27.5" y2="82" stroke="#16233c" stroke-width="1.2" stroke-linecap="round"/><line x1="15.88" y1="82" x2="17.71" y2="80.45" stroke="#16233c" stroke-width="0.98" stroke-linecap="round"/><line x1="24.13" y1="82" x2="25.96" y2="83.55" stroke="#16233c" stroke-width="0.98" stroke-linecap="round"/><line x1="16.25" y1="75.5" x2="23.75" y2="88.5" stroke="#16233c" stroke-width="1.2" stroke-linecap="round"/><line x1="17.94" y1="78.43" x2="20.19" y2="79.24" stroke="#16233c" stroke-width="0.98" stroke-linecap="round"/><line x1="22.06" y1="85.57" x2="21.64" y2="87.94" stroke="#16233c" stroke-width="0.98" stroke-linecap="round"/><line x1="23.75" y1="75.5" x2="16.25" y2="88.5" stroke="#16233c" stroke-width="1.2" stroke-linecap="round"/><line x1="22.06" y1="78.43" x2="22.48" y2="80.79" stroke="#16233c" stroke-width="0.98" stroke-linecap="round"/><line x1="17.94" y1="85.57" x2="15.68" y2="86.39" stroke="#16233c" stroke-width="0.98" stroke-linecap="round"/><circle cx="20" cy="82" r="1.5" fill="#e47e56"/><circle cx="74" cy="24" r="4" fill="#e47e56"/><circle cx="54" cy="60" r="2.5" fill="#16233c"/><circle cx="92" cy="52" r="3" fill="#e47e56"/></g><g transform="translate(100 -100)"><line x1="16" y1="34" x2="52" y2="34" stroke="#16233c" stroke-width="2.88" stroke-linecap="round"/><line x1="24.1" y1="34" x2="28.51" y2="30.29" stroke="#16233c" stroke-width="2.34" stroke-linecap="round"/><line x1="43.9" y1="34" x2="48.31" y2="37.71" stroke="#16233c" stroke-width="2.34" stroke-linecap="round"/><line x1="25" y1="18.41" x2="43" y2="49.59" stroke="#16233c" stroke-width="2.88" stroke-linecap="round"/><line x1="29.05" y1="25.43" x2="34.47" y2="27.39" stroke="#16233c" stroke-width="2.34" stroke-linecap="round"/><line x1="38.95" y1="42.57" x2="37.94" y2="48.24" stroke="#16233c" stroke-width="2.34" stroke-linecap="round"/><line x1="43" y1="18.41" x2="25" y2="49.59" stroke="#16233c" stroke-width="2.88" stroke-linecap="round"/><line x1="38.95" y1="25.43" x2="39.96" y2="31.1" stroke="#16233c" stroke-width="2.34" stroke-linecap="round"/><line x1="29.05" y1="42.57" x2="23.63" y2="44.53" stroke="#16233c" stroke-width="2.34" stroke-linecap="round"/><circle cx="34" cy="34" r="3.6" fill="#e47e56"/><line x1="67" y1="76" x2="89" y2="76" stroke="#16233c" stroke-width="1.76" stroke-linecap="round"/><line x1="71.95" y1="76" x2="74.64" y2="73.73" stroke="#16233c" stroke-width="1.43" stroke-linecap="round"/><line x1="84.05" y1="76" x2="86.74" y2="78.27" stroke="#16233c" stroke-width="1.43" stroke-linecap="round"/><line x1="72.5" y1="66.47" x2="83.5" y2="85.53" stroke="#16233c" stroke-width="1.76" stroke-linecap="round"/><line x1="74.97" y1="70.76" x2="78.28" y2="71.96" stroke="#16233c" stroke-width="1.43" stroke-linecap="round"/><line x1="81.03" y1="81.24" x2="80.41" y2="84.7" stroke="#16233c" stroke-width="1.43" stroke-linecap="round"/><line x1="83.5" y1="66.47" x2="72.5" y2="85.53" stroke="#16233c" stroke-width="1.76" stroke-linecap="round"/><line x1="81.03" y1="70.76" x2="81.64" y2="74.23" stroke="#16233c" stroke-width="1.43" stroke-linecap="round"/><line x1="74.97" y1="81.24" x2="71.67" y2="82.44" stroke="#16233c" stroke-width="1.43" stroke-linecap="round"/><circle cx="78" cy="76" r="2.2" fill="#e47e56"/><line x1="12.5" y1="82" x2="27.5" y2="82" stroke="#16233c" stroke-width="1.2" stroke-linecap="round"/><line x1="15.88" y1="82" x2="17.71" y2="80.45" stroke="#16233c" stroke-width="0.98" stroke-linecap="round"/><line x1="24.13" y1="82" x2="25.96" y2="83.55" stroke="#16233c" stroke-width="0.98" stroke-linecap="round"/><line x1="16.25" y1="75.5" x2="23.75" y2="88.5" stroke="#16233c" stroke-width="1.2" stroke-linecap="round"/><line x1="17.94" y1="78.43" x2="20.19" y2="79.24" stroke="#16233c" stroke-width="0.98" stroke-linecap="round"/><line x1="22.06" y1="85.57" x2="21.64" y2="87.94" stroke="#16233c" stroke-width="0.98" stroke-linecap="round"/><line x1="23.75" y1="75.5" x2="16.25" y2="88.5" stroke="#16233c" stroke-width="1.2" stroke-linecap="round"/><line x1="22.06" y1="78.43" x2="22.48" y2="80.79" stroke="#16233c" stroke-width="0.98" stroke-linecap="round"/><line x1="17.94" y1="85.57" x2="15.68" y2="86.39" stroke="#16233c" stroke-width="0.98" stroke-linecap="round"/><circle cx="20" cy="82" r="1.5" fill="#e47e56"/><circle cx="74" cy="24" r="4" fill="#e47e56"/><circle cx="54" cy="60" r="2.5" fill="#16233c"/><circle cx="92" cy="52" r="3" fill="#e47e56"/></g><g transform="translate(100 0)"><line x1="16" y1="34" x2="52" y2="34" stroke="#16233c" stroke-width="2.88" stroke-linecap="round"/><line x1="24.1" y1="34" x2="28.51" y2="30.29" stroke="#16233c" stroke-width="2.34" stroke-linecap="round"/><line x1="43.9" y1="34" x2="48.31" y2="37.71" stroke="#16233c" stroke-width="2.34" stroke-linecap="round"/><line x1="25" y1="18.41" x2="43" y2="49.59" stroke="#16233c" stroke-width="2.88" stroke-linecap="round"/><line x1="29.05" y1="25.43" x2="34.47" y2="27.39" stroke="#16233c" stroke-width="2.34" stroke-linecap="round"/><line x1="38.95" y1="42.57" x2="37.94" y2="48.24" stroke="#16233c" stroke-width="2.34" stroke-linecap="round"/><line x1="43" y1="18.41" x2="25" y2="49.59" stroke="#16233c" stroke-width="2.88" stroke-linecap="round"/><line x1="38.95" y1="25.43" x2="39.96" y2="31.1" stroke="#16233c" stroke-width="2.34" stroke-linecap="round"/><line x1="29.05" y1="42.57" x2="23.63" y2="44.53" stroke="#16233c" stroke-width="2.34" stroke-linecap="round"/><circle cx="34" cy="34" r="3.6" fill="#e47e56"/><line x1="67" y1="76" x2="89" y2="76" stroke="#16233c" stroke-width="1.76" stroke-linecap="round"/><line x1="71.95" y1="76" x2="74.64" y2="73.73" stroke="#16233c" stroke-width="1.43" stroke-linecap="round"/><line x1="84.05" y1="76" x2="86.74" y2="78.27" stroke="#16233c" stroke-width="1.43" stroke-linecap="round"/><line x1="72.5" y1="66.47" x2="83.5" y2="85.53" stroke="#16233c" stroke-width="1.76" stroke-linecap="round"/><line x1="74.97" y1="70.76" x2="78.28" y2="71.96" stroke="#16233c" stroke-width="1.43" stroke-linecap="round"/><line x1="81.03" y1="81.24" x2="80.41" y2="84.7" stroke="#16233c" stroke-width="1.43" stroke-linecap="round"/><line x1="83.5" y1="66.47" x2="72.5" y2="85.53" stroke="#16233c" stroke-width="1.76" stroke-linecap="round"/><line x1="81.03" y1="70.76" x2="81.64" y2="74.23" stroke="#16233c" stroke-width="1.43" stroke-linecap="round"/><line x1="74.97" y1="81.24" x2="71.67" y2="82.44" stroke="#16233c" stroke-width="1.43" stroke-linecap="round"/><circle cx="78" cy="76" r="2.2" fill="#e47e56"/><line x1="12.5" y1="82" x2="27.5" y2="82" stroke="#16233c" stroke-width="1.2" stroke-linecap="round"/><line x1="15.88" y1="82" x2="17.71" y2="80.45" stroke="#16233c" stroke-width="0.98" stroke-linecap="round"/><line x1="24.13" y1="82" x2="25.96" y2="83.55" stroke="#16233c" stroke-width="0.98" stroke-linecap="round"/><line x1="16.25" y1="75.5" x2="23.75" y2="88.5" stroke="#16233c" stroke-width="1.2" stroke-linecap="round"/><line x1="17.94" y1="78.43" x2="20.19" y2="79.24" stroke="#16233c" stroke-width="0.98" stroke-linecap="round"/><line x1="22.06" y1="85.57" x2="21.64" y2="87.94" stroke="#16233c" stroke-width="0.98" stroke-linecap="round"/><line x1="23.75" y1="75.5" x2="16.25" y2="88.5" stroke="#16233c" stroke-width="1.2" stroke-linecap="round"/><line x1="22.06" y1="78.43" x2="22.48" y2="80.79" stroke="#16233c" stroke-width="0.98" stroke-linecap="round"/><line x1="17.94" y1="85.57" x2="15.68" y2="86.39" stroke="#16233c" stroke-width="0.98" stroke-linecap="round"/><circle cx="20" cy="82" r="1.5" fill="#e47e56"/><circle cx="74" cy="24" r="4" fill="#e47e56"/><circle cx="54" cy="60" r="2.5" fill="#16233c"/><circle cx="92" cy="52" r="3" fill="#e47e56"/></g><g transform="translate(100 100)"><line x1="16" y1="34" x2="52" y2="34" stroke="#16233c" stroke-width="2.88" stroke-linecap="round"/><line x1="24.1" y1="34" x2="28.51" y2="30.29" stroke="#16233c" stroke-width="2.34" stroke-linecap="round"/><line x1="43.9" y1="34" x2="48.31" y2="37.71" stroke="#16233c" stroke-width="2.34" stroke-linecap="round"/><line x1="25" y1="18.41" x2="43" y2="49.59" stroke="#16233c" stroke-width="2.88" stroke-linecap="round"/><line x1="29.05" y1="25.43" x2="34.47" y2="27.39" stroke="#16233c" stroke-width="2.34" stroke-linecap="round"/><line x1="38.95" y1="42.57" x2="37.94" y2="48.24" stroke="#16233c" stroke-width="2.34" stroke-linecap="round"/><line x1="43" y1="18.41" x2="25" y2="49.59" stroke="#16233c" stroke-width="2.88" stroke-linecap="round"/><line x1="38.95" y1="25.43" x2="39.96" y2="31.1" stroke="#16233c" stroke-width="2.34" stroke-linecap="round"/><line x1="29.05" y1="42.57" x2="23.63" y2="44.53" stroke="#16233c" stroke-width="2.34" stroke-linecap="round"/><circle cx="34" cy="34" r="3.6" fill="#e47e56"/><line x1="67" y1="76" x2="89" y2="76" stroke="#16233c" stroke-width="1.76" stroke-linecap="round"/><line x1="71.95" y1="76" x2="74.64" y2="73.73" stroke="#16233c" stroke-width="1.43" stroke-linecap="round"/><line x1="84.05" y1="76" x2="86.74" y2="78.27" stroke="#16233c" stroke-width="1.43" stroke-linecap="round"/><line x1="72.5" y1="66.47" x2="83.5" y2="85.53" stroke="#16233c" stroke-width="1.76" stroke-linecap="round"/><line x1="74.97" y1="70.76" x2="78.28" y2="71.96" stroke="#16233c" stroke-width="1.43" stroke-linecap="round"/><line x1="81.03" y1="81.24" x2="80.41" y2="84.7" stroke="#16233c" stroke-width="1.43" stroke-linecap="round"/><line x1="83.5" y1="66.47" x2="72.5" y2="85.53" stroke="#16233c" stroke-width="1.76" stroke-linecap="round"/><line x1="81.03" y1="70.76" x2="81.64" y2="74.23" stroke="#16233c" stroke-width="1.43" stroke-linecap="round"/><line x1="74.97" y1="81.24" x2="71.67" y2="82.44" stroke="#16233c" stroke-width="1.43" stroke-linecap="round"/><circle cx="78" cy="76" r="2.2" fill="#e47e56"/><line x1="12.5" y1="82" x2="27.5" y2="82" stroke="#16233c" stroke-width="1.2" stroke-linecap="round"/><line x1="15.88" y1="82" x2="17.71" y2="80.45" stroke="#16233c" stroke-width="0.98" stroke-linecap="round"/><line x1="24.13" y1="82" x2="25.96" y2="83.55" stroke="#16233c" stroke-width="0.98" stroke-linecap="round"/><line x1="16.25" y1="75.5" x2="23.75" y2="88.5" stroke="#16233c" stroke-width="1.2" stroke-linecap="round"/><line x1="17.94" y1="78.43" x2="20.19" y2="79.24" stroke="#16233c" stroke-width="0.98" stroke-linecap="round"/><line x1="22.06" y1="85.57" x2="21.64" y2="87.94" stroke="#16233c" stroke-width="0.98" stroke-linecap="round"/><line x1="23.75" y1="75.5" x2="16.25" y2="88.5" stroke="#16233c" stroke-width="1.2" stroke-linecap="round"/><line x1="22.06" y1="78.43" x2="22.48" y2="80.79" stroke="#16233c" stroke-width="0.98" stroke-linecap="round"/><line x1="17.94" y1="85.57" x2="15.68" y2="86.39" stroke="#16233c" stroke-width="0.98" stroke-linecap="round"/><circle cx="20" cy="82" r="1.5" fill="#e47e56"/><circle cx="74" cy="24" r="4" fill="#e47e56"/><circle cx="54" cy="60" r="2.5" fill="#16233c"/><circle cx="92" cy="52" r="3" fill="#e47e56"/></g></pattern>
  <linearGradient id="light" x1="0" y1="0" x2="1" y2="1">
    <stop offset="0" stop-color="#ffffff" stop-opacity="0.14"/>
    <stop offset="0.5" stop-color="#ffffff" stop-opacity="0"/>
    <stop offset="1" stop-color="#000000" stop-opacity="0.12"/>
  </linearGradient>
  <radialGradient id="vig" cx="0.5" cy="0.42" r="0.78">
    <stop offset="0.55" stop-color="#000000" stop-opacity="0"/>
    <stop offset="1" stop-color="#000000" stop-opacity="0.16"/>
  </radialGradient></defs>
  <rect width="600" height="750" fill="#cfe0ea"/>
  <rect width="600" height="750" fill="url(#pat)"/>
  <rect width="600" height="750" fill="url(#light)"/>
  <rect width="600" height="750" fill="url(#vig)"/>
</svg>
